<svg xmlns="http://www.w3.org/2000/svg" xmlns:xlink="http://www.w3.org/1999/xlink" width="625" height="327" version="1.1" viewBox="0 0 625 327"><title>arctic_logo</title><desc>Created with Sketch.</desc><g id="Page-1" fill="none" fill-rule="evenodd" stroke="none" stroke-width="1"><polygon id="Path-37" fill="#F7F7F7" stroke="#555" stroke-width="8" points="150 5 108 43 75 104 51 176 48 215 5 284 30 321 78.066 320 71.432 309.42 55 304 46 289 119 226 188 319 260.887 320 253.977 304 231 293 222 224 338 192 336 265 370 320 417 320 408.377 309.42 392 306 381 250 426 269 443 307 455 302 462 282 463 256 416 207 440 148 546 161 598 174 619 159 589 117 551 62 535.264 37 513.771 59 498 59 455 39 397 25 344 37 277 19"/><path id="Line" stroke="#555" stroke-linecap="square" stroke-width="8" d="M30.5,319.5 L53.5,303.5"/><path id="Line" stroke="#555" stroke-linecap="square" stroke-width="8" d="M6.5,284.5 L46.5,288.5"/><polyline id="Path-40" stroke="#555" stroke-width="8" points="119 226 72 160 75 104"/><path id="Line" stroke="#555" stroke-linecap="square" stroke-width="8" d="M48.5,219 L110.5,219"/><polyline id="Path-42" stroke="#555" stroke-width="8" points="150 5 198 94 222 223.5"/><path id="Line" stroke="#555" stroke-linecap="square" stroke-width="8" d="M189.5,317.5 L230.5,292.5"/><path id="Line" stroke="#555" stroke-linecap="square" stroke-width="8" d="M344.5,37.5 L338.151123,187.804199"/><path id="Line" stroke="#555" stroke-linecap="square" stroke-width="8" d="M396.576416,26.0239258 L440.5,148.5"/><path id="Line" stroke="#555" stroke-linecap="square" stroke-width="8" d="M498.306641,59.7307129 L441.328857,146.482666"/><path id="Line" stroke="#555" stroke-linecap="square" stroke-width="8" d="M338.5,222.5 L382.5,250.5"/><path id="Line" stroke="#555" stroke-linecap="square" stroke-width="8" d="M416.5,206.5 L394.5,255.5"/><path id="Line" stroke="#555" stroke-linecap="square" stroke-width="8" d="M425.5,268.5 L460,282"/><path id="Line" stroke="#555" stroke-linecap="square" stroke-width="8" d="M369.5,318.5 L391.5,305.5"/><path id="Line" stroke="#555" stroke-linecap="square" stroke-width="8" d="M516,59 C516,59 516.452362,59.0141363 516.992786,59.0310246 L548,60"/><path id="Line" stroke="#555" stroke-linecap="square" stroke-width="8" d="M547.5,159.5 L588.5,117.5"/></g></svg>